<mxfile host="app.diagrams.net" modified="2021-03-18T06:51:47.665Z" agent="5.0 (Macintosh)" etag="h3i4aDRZC5u_k4IWKbMD" version="14.4.8" type="github">
  <diagram name="Page-1" id="c7558073-3199-34d8-9f00-42111426c3f3">
    <mxGraphModel dx="1383" dy="610" grid="1" gridSize="10" guides="1" tooltips="1" connect="1" arrows="1" fold="1" page="1" pageScale="1" pageWidth="826" pageHeight="1169" background="#ffffff" math="0" shadow="0">
      <root>
        <mxCell id="0" />
        <mxCell id="1" parent="0" />
        <mxCell id="2" value="&lt;p class=&quot;MsoNormal&quot;&gt;&lt;b&gt;&lt;span style=&quot;color: rgb(38 , 38 , 38) ; font-weight: bold ; font-size: 10.5000pt&quot;&gt;Coinpro.MintC&lt;/span&gt;&lt;/b&gt;&lt;/p&gt;&lt;p class=&quot;MsoNormal&quot;&gt;&lt;b style=&quot;font-size: 17px&quot;&gt;&lt;span style=&quot;color: rgb(38 , 38 , 38) ; font-weight: bold&quot;&gt;铸币中心&lt;br&gt;&lt;/span&gt;&lt;/b&gt;&lt;/p&gt;" style="verticalAlign=middle;align=center;overflow=fill;fontSize=12;fontFamily=Helvetica;html=1;rounded=1;fontStyle=1;strokeWidth=3;fillColor=#E6FFCC;labelBorderColor=#000000;" parent="1" vertex="1">
          <mxGeometry x="276" y="130" width="110" height="90" as="geometry" />
        </mxCell>
        <mxCell id="4" value="Investors" style="whiteSpace=wrap;align=center;verticalAlign=middle;fontStyle=1;strokeWidth=3;fillColor=#FFFFCC;shadow=0;glass=0;rounded=1;" parent="1" vertex="1">
          <mxGeometry x="80" y="145" width="90" height="60" as="geometry" />
        </mxCell>
        <mxCell id="I-rFNmcl2KVAWolhmgIG-115" style="edgeStyle=orthogonalEdgeStyle;rounded=0;orthogonalLoop=1;jettySize=auto;html=1;exitX=0;exitY=0.5;exitDx=0;exitDy=0;entryX=1;entryY=0.5;entryDx=0;entryDy=0;strokeWidth=1;fontSize=14;" edge="1" parent="1" source="5" target="I-rFNmcl2KVAWolhmgIG-114">
          <mxGeometry relative="1" as="geometry" />
        </mxCell>
        <mxCell id="5" value="POOLs （私有池 + 共享池 ）" style="shape=process;whiteSpace=wrap;align=center;verticalAlign=middle;size=0.0475;fontStyle=1;strokeWidth=3;fillColor=#FFCCCC" parent="1" vertex="1">
          <mxGeometry x="410.9999999999999" y="391" width="400" height="50" as="geometry" />
        </mxCell>
        <mxCell id="I-rFNmcl2KVAWolhmgIG-106" style="edgeStyle=orthogonalEdgeStyle;rounded=0;orthogonalLoop=1;jettySize=auto;html=1;exitX=0.5;exitY=1;exitDx=0;exitDy=0;fontSize=14;fillColor=#fff2cc;strokeColor=#d6b656;strokeWidth=2;" edge="1" parent="1" source="7" target="5">
          <mxGeometry relative="1" as="geometry">
            <Array as="points">
              <mxPoint x="540" y="190" />
            </Array>
          </mxGeometry>
        </mxCell>
        <mxCell id="I-rFNmcl2KVAWolhmgIG-124" style="edgeStyle=orthogonalEdgeStyle;rounded=0;orthogonalLoop=1;jettySize=auto;html=1;exitX=1;exitY=0.5;exitDx=0;exitDy=0;entryX=0.5;entryY=0;entryDx=0;entryDy=0;strokeWidth=2;fontSize=14;fillColor=#fff2cc;strokeColor=#d6b656;" edge="1" parent="1" source="7" target="I-rFNmcl2KVAWolhmgIG-123">
          <mxGeometry relative="1" as="geometry" />
        </mxCell>
        <mxCell id="7" value="&lt;div style=&quot;font-size: 14px;&quot;&gt;&lt;h4 style=&quot;font-size: 14px;&quot;&gt;Exchange&lt;/h4&gt;&lt;h4 style=&quot;font-size: 14px;&quot;&gt;兑换中心&lt;br style=&quot;font-size: 14px;&quot;&gt;&lt;/h4&gt;&lt;/div&gt;" style="verticalAlign=bottom;align=center;overflow=fill;fontSize=14;fontFamily=Helvetica;html=1;rounded=1;fontStyle=1;strokeWidth=3;fillColor=#E6FFCC" parent="1" vertex="1">
          <mxGeometry x="500" y="130" width="110" height="90" as="geometry" />
        </mxCell>
        <mxCell id="9" value="&lt;p style=&quot;margin: 0px ; margin-top: 4px ; text-align: center ; text-decoration: underline&quot;&gt;&lt;strong&gt;&lt;strong&gt;pool n&lt;br&gt;&lt;/strong&gt;&lt;/strong&gt;&lt;/p&gt;&lt;p style=&quot;margin: 0px ; margin-top: 4px ; text-align: center ; text-decoration: underline&quot;&gt;&lt;strong&gt;&lt;strong&gt;交易费率3&lt;br&gt;&lt;/strong&gt;&lt;/strong&gt;&lt;/p&gt;&lt;hr&gt;cto 12%&lt;p style=&quot;margin: 0px ; margin-left: 8px&quot;&gt;wbtc 12%&lt;/p&gt;&lt;p style=&quot;margin: 0px ; margin-left: 8px&quot;&gt;.....&lt;/p&gt;&lt;p style=&quot;margin: 0px ; margin-left: 8px&quot;&gt;最多8种资产&lt;br&gt;&lt;/p&gt;" style="verticalAlign=middle;align=center;overflow=fill;fontSize=12;fontFamily=Helvetica;html=1;rounded=1;fontStyle=1;strokeWidth=3;fillColor=#E6FFCC" parent="1" vertex="1">
          <mxGeometry x="720" y="510" width="110" height="120" as="geometry" />
        </mxCell>
        <mxCell id="37" value="" style="edgeStyle=none;noEdgeStyle=1;strokeColor=#990000;strokeWidth=2" parent="1" source="4" target="2" edge="1">
          <mxGeometry width="100" height="100" relative="1" as="geometry">
            <mxPoint x="320" y="84" as="sourcePoint" />
            <mxPoint x="420" y="-16" as="targetPoint" />
          </mxGeometry>
        </mxCell>
        <mxCell id="52" value="抵押 DOT/CTO" style="text;spacingTop=-5;align=center" parent="1" vertex="1">
          <mxGeometry x="210" y="155" width="30" height="20" as="geometry" />
        </mxCell>
        <mxCell id="76" value="" style="edgeStyle=elbowEdgeStyle;elbow=horizontal;strokeColor=#990000;strokeWidth=2" parent="1" source="9" target="5" edge="1">
          <mxGeometry width="100" height="100" relative="1" as="geometry">
            <mxPoint x="630" y="580" as="sourcePoint" />
            <mxPoint x="730" y="480" as="targetPoint" />
            <Array as="points">
              <mxPoint x="780" y="470" />
            </Array>
          </mxGeometry>
        </mxCell>
        <mxCell id="77" value="" style="edgeStyle=elbowEdgeStyle;elbow=horizontal;strokeColor=#990000;strokeWidth=2" parent="1" source="5" target="9" edge="1">
          <mxGeometry width="100" height="100" relative="1" as="geometry">
            <mxPoint x="610" y="590" as="sourcePoint" />
            <mxPoint x="710" y="490" as="targetPoint" />
            <Array as="points">
              <mxPoint x="760" y="470" />
            </Array>
          </mxGeometry>
        </mxCell>
        <mxCell id="88" value="" style="edgeStyle=elbowEdgeStyle;elbow=horizontal;strokeColor=#990000;strokeWidth=2" parent="1" source="5" edge="1">
          <mxGeometry width="100" height="100" relative="1" as="geometry">
            <mxPoint x="260" y="500" as="sourcePoint" />
            <mxPoint x="600" y="510" as="targetPoint" />
            <Array as="points">
              <mxPoint x="600" y="470" />
            </Array>
          </mxGeometry>
        </mxCell>
        <mxCell id="89" value="" style="edgeStyle=elbowEdgeStyle;elbow=horizontal;strokeColor=#990000;strokeWidth=2" parent="1" target="5" edge="1">
          <mxGeometry width="100" height="100" relative="1" as="geometry">
            <mxPoint x="620" y="510" as="sourcePoint" />
            <mxPoint x="369.9999999999999" y="410" as="targetPoint" />
            <Array as="points">
              <mxPoint x="620" y="470" />
            </Array>
          </mxGeometry>
        </mxCell>
        <mxCell id="92" value="" style="edgeStyle=elbowEdgeStyle;elbow=horizontal;strokeColor=#990000;strokeWidth=2" parent="1" source="5" edge="1">
          <mxGeometry width="100" height="100" relative="1" as="geometry">
            <mxPoint x="240.0000000000001" y="500" as="sourcePoint" />
            <mxPoint x="460" y="510" as="targetPoint" />
            <Array as="points">
              <mxPoint x="460" y="470" />
            </Array>
          </mxGeometry>
        </mxCell>
        <mxCell id="93" value="" style="edgeStyle=elbowEdgeStyle;elbow=horizontal;strokeColor=#990000;strokeWidth=2" parent="1" target="5" edge="1">
          <mxGeometry width="100" height="100" relative="1" as="geometry">
            <mxPoint x="440" y="510" as="sourcePoint" />
            <mxPoint x="350" y="410" as="targetPoint" />
            <Array as="points">
              <mxPoint x="440" y="470" />
            </Array>
          </mxGeometry>
        </mxCell>
        <mxCell id="I-rFNmcl2KVAWolhmgIG-96" value="" style="edgeStyle=none;noEdgeStyle=1;strokeColor=#990000;strokeWidth=2" edge="1" parent="1">
          <mxGeometry width="100" height="100" relative="1" as="geometry">
            <mxPoint x="388" y="173.67000000000002" as="sourcePoint" />
            <mxPoint x="494" y="173.67000000000002" as="targetPoint" />
          </mxGeometry>
        </mxCell>
        <mxCell id="I-rFNmcl2KVAWolhmgIG-97" value="获得 CUSD" style="text;spacingTop=-5;align=center" vertex="1" parent="1">
          <mxGeometry x="420" y="154" width="30" height="21" as="geometry" />
        </mxCell>
        <mxCell id="I-rFNmcl2KVAWolhmgIG-103" value="" style="endArrow=none;dashed=1;html=1;dashPattern=1 3;strokeWidth=2;fontSize=14;exitX=1;exitY=0.5;exitDx=0;exitDy=0;entryX=0;entryY=0.5;entryDx=0;entryDy=0;" edge="1" parent="1" source="I-rFNmcl2KVAWolhmgIG-104" target="9">
          <mxGeometry width="50" height="50" relative="1" as="geometry">
            <mxPoint x="663.5" y="555" as="sourcePoint" />
            <mxPoint x="750" y="500" as="targetPoint" />
          </mxGeometry>
        </mxCell>
        <mxCell id="I-rFNmcl2KVAWolhmgIG-104" value="&lt;p style=&quot;margin: 0px ; margin-top: 4px ; text-align: center ; text-decoration: underline&quot;&gt;&lt;strong&gt;&lt;strong&gt;pool 2&lt;/strong&gt;&lt;/strong&gt;&lt;br&gt;&lt;strong&gt;&lt;strong&gt;&lt;font style=&quot;font-size: 11px&quot;&gt;&lt;strong&gt;&lt;strong&gt;交易费率2&lt;/strong&gt;&lt;/strong&gt;&lt;/font&gt;&lt;/strong&gt;&lt;/strong&gt;&lt;/p&gt;&lt;hr&gt;CTO&amp;nbsp;&amp;nbsp;&amp;nbsp; 30%&lt;p style=&quot;margin: 0px ; margin-left: 8px&quot;&gt;WBTC 10%&lt;/p&gt;&lt;p style=&quot;margin: 0px ; margin-left: 8px&quot;&gt;DOT&amp;nbsp;&amp;nbsp;&amp;nbsp; 60%&lt;br&gt;&lt;/p&gt;" style="verticalAlign=middle;align=center;overflow=fill;fontSize=12;fontFamily=Helvetica;html=1;rounded=1;fontStyle=1;strokeWidth=3;fillColor=#E6FFCC" vertex="1" parent="1">
          <mxGeometry x="556" y="510" width="110" height="120" as="geometry" />
        </mxCell>
        <mxCell id="I-rFNmcl2KVAWolhmgIG-105" value="&lt;p style=&quot;margin: 4px 0px 0px ; text-align: center ; text-decoration: underline ; font-size: 11px&quot;&gt;&lt;font style=&quot;font-size: 11px&quot;&gt;&lt;strong&gt;&lt;strong&gt;pool 1&lt;br&gt;&lt;/strong&gt;&lt;/strong&gt;&lt;/font&gt;&lt;/p&gt;&lt;p style=&quot;margin: 4px 0px 0px ; text-align: center ; text-decoration: underline ; font-size: 11px&quot;&gt;&lt;font style=&quot;font-size: 11px&quot;&gt;&lt;strong&gt;&lt;strong&gt;交易费率1&lt;br&gt;&lt;/strong&gt;&lt;/strong&gt;&lt;/font&gt;&lt;/p&gt;&lt;p style=&quot;margin: 4px 0px 0px ; text-align: center ; text-decoration: underline ; font-size: 11px&quot;&gt;&lt;font style=&quot;font-size: 11px&quot;&gt;&lt;strong&gt;&lt;strong&gt;&lt;/strong&gt;&lt;br&gt;&lt;/strong&gt;&lt;/font&gt;&lt;/p&gt;&lt;hr style=&quot;font-size: 11px&quot;&gt;&lt;div style=&quot;font-size: 11px&quot;&gt;&lt;font style=&quot;font-size: 11px&quot;&gt;WBTC 50%&lt;/font&gt;&lt;/div&gt;&lt;div style=&quot;font-size: 11px&quot;&gt;&lt;font style=&quot;font-size: 11px&quot;&gt;WETH 50%&lt;/font&gt;&lt;/div&gt;" style="verticalAlign=middle;align=center;overflow=fill;fontSize=12;fontFamily=Helvetica;html=1;rounded=1;fontStyle=1;strokeWidth=3;fillColor=#E6FFCC" vertex="1" parent="1">
          <mxGeometry x="400" y="510" width="110" height="120" as="geometry" />
        </mxCell>
        <mxCell id="I-rFNmcl2KVAWolhmgIG-108" value="&lt;p class=&quot;reset-3c756112--pageTitle-33dc39a3&quot;&gt;&lt;font style=&quot;font-size: 14px&quot;&gt;SOR&lt;/font&gt;&lt;font style=&quot;font-size: 12px&quot;&gt;&lt;br&gt;&lt;/font&gt;&lt;/p&gt;&lt;p class=&quot;reset-3c756112--pageTitle-33dc39a3&quot;&gt;&lt;font style=&quot;font-size: 12px&quot;&gt;从池子最佳匹配兑换&lt;/font&gt;&lt;br&gt;&lt;/p&gt;" style="text;whiteSpace=wrap;html=1;fontSize=14;rotation=0;verticalAlign=middle;align=center;spacing=1;" vertex="1" parent="1">
          <mxGeometry x="413" y="235" width="145.25" height="70" as="geometry" />
        </mxCell>
        <mxCell id="I-rFNmcl2KVAWolhmgIG-119" style="edgeStyle=orthogonalEdgeStyle;rounded=0;orthogonalLoop=1;jettySize=auto;html=1;exitX=0.5;exitY=0;exitDx=0;exitDy=0;strokeWidth=1;fontSize=14;" edge="1" parent="1" source="I-rFNmcl2KVAWolhmgIG-114">
          <mxGeometry relative="1" as="geometry">
            <mxPoint x="120" y="210" as="targetPoint" />
          </mxGeometry>
        </mxCell>
        <mxCell id="I-rFNmcl2KVAWolhmgIG-114" value="&lt;div align=&quot;center&quot;&gt;&lt;h3&gt;交易费池&lt;/h3&gt;&lt;div&gt;治理代币池&lt;br&gt;&lt;/div&gt;&lt;/div&gt;" style="verticalAlign=middle;align=center;overflow=fill;fontSize=12;fontFamily=Helvetica;html=1;rounded=1;fontStyle=1;strokeWidth=3;fillColor=#E6FFCC" vertex="1" parent="1">
          <mxGeometry x="50" y="380.5" width="140" height="71" as="geometry" />
        </mxCell>
        <mxCell id="I-rFNmcl2KVAWolhmgIG-116" value="交易费用" style="text;html=1;resizable=0;autosize=1;align=center;verticalAlign=middle;points=[];fillColor=none;strokeColor=none;rounded=0;fontSize=14;" vertex="1" parent="1">
          <mxGeometry x="275.5" y="391" width="70" height="20" as="geometry" />
        </mxCell>
        <mxCell id="I-rFNmcl2KVAWolhmgIG-120" value="&lt;div&gt;交易费用返还&lt;/div&gt;&lt;div&gt;治理代币分红&lt;br&gt;&lt;/div&gt;" style="text;html=1;resizable=0;autosize=1;align=center;verticalAlign=middle;points=[];fillColor=none;strokeColor=none;rounded=0;fontSize=14;" vertex="1" parent="1">
          <mxGeometry x="120" y="250" width="100" height="40" as="geometry" />
        </mxCell>
        <mxCell id="I-rFNmcl2KVAWolhmgIG-125" style="edgeStyle=orthogonalEdgeStyle;rounded=0;orthogonalLoop=1;jettySize=auto;html=1;strokeWidth=2;fontSize=14;fillColor=#fff2cc;strokeColor=#d6b656;" edge="1" parent="1" source="I-rFNmcl2KVAWolhmgIG-123">
          <mxGeometry relative="1" as="geometry">
            <mxPoint x="721" y="390" as="targetPoint" />
          </mxGeometry>
        </mxCell>
        <mxCell id="I-rFNmcl2KVAWolhmgIG-123" value="&lt;div&gt;&lt;br&gt;&lt;/div&gt;&lt;div&gt;创建、加入&lt;/div&gt;&lt;div&gt;流动性池&lt;/div&gt;" style="verticalAlign=bottom;align=center;overflow=fill;fontSize=14;fontFamily=Helvetica;html=1;rounded=1;fontStyle=1;strokeWidth=3;fillColor=#E6FFCC;sketch=0;glass=0;" vertex="1" parent="1">
          <mxGeometry x="666" y="250" width="110" height="65" as="geometry" />
        </mxCell>
        <mxCell id="I-rFNmcl2KVAWolhmgIG-126" value="&lt;b&gt;staking&lt;/b&gt;" style="text;whiteSpace=wrap;html=1;fontSize=14;rotation=0;verticalAlign=middle;align=center;spacing=1;" vertex="1" parent="1">
          <mxGeometry x="650" y="130" width="60" height="70" as="geometry" />
        </mxCell>
      </root>
    </mxGraphModel>
  </diagram>
</mxfile>
